<svg version="1.1" viewBox="0.0 0.0 960.0 720.0" fill="none" stroke="none" stroke-linecap="square" stroke-miterlimit="10" xmlns:xlink="http://www.w3.org/1999/xlink" xmlns="http://www.w3.org/2000/svg"><clipPath id="p.0"><path d="m0 0l960.0 0l0 720.0l-960.0 0l0 -720.0z" clip-rule="nonzero"/></clipPath><g clip-path="url(#p.0)"><path fill="#000000" fill-opacity="0.0" d="m0 0l960.0 0l0 720.0l-960.0 0z" fill-rule="evenodd"/><path fill="#000000" fill-opacity="0.0" d="m504.0 196.72527l0 0c107.65283 0 204.3258 20.560196 243.64758 51.818405c39.321716 31.25821 13.271179 66.83823 -65.656006 89.67328l-177.99158 -59.85388z" fill-rule="evenodd"/><path fill="#000000" fill-opacity="0.0" d="m504.0 196.72527l0 0c107.65283 0 204.3258 20.560196 243.64758 51.818405c39.321716 31.25821 13.271179 66.83823 -65.656006 89.67328" fill-rule="evenodd"/><path stroke="#000000" stroke-width="4.0" stroke-linejoin="round" stroke-linecap="butt" d="m504.0 196.72527l0 0c107.65283 0 204.3258 20.560196 243.64758 51.818405c39.321716 31.25821 13.271179 66.83823 -65.656006 89.67328" fill-rule="evenodd"/><path fill="#000000" fill-opacity="0.0" d="m398.90872 206.4609c111.76785 -11.989777 236.76614 -0.1554718 304.37027 28.816452c67.604126 28.97194 60.835876 67.805435 -16.480652 94.55943l-198.79834 -50.448334z" fill-rule="evenodd"/><path fill="#000000" fill-opacity="0.0" d="m398.90872 206.4609c111.76785 -11.989777 236.76614 -0.1554718 304.37027 28.816452c67.604126 28.97194 60.835876 67.805435 -16.480652 94.55943" fill-rule="evenodd"/><path stroke="#ff0000" stroke-width="4.0" stroke-linejoin="round" stroke-linecap="butt" stroke-dasharray="16.0,12.0" d="m398.90875 206.46092c111.76785 -11.989792 236.76611 -0.15550232 304.37018 28.816437c33.802124 14.485962 49.01111 31.437332 46.10492 48.111435c-1.4530029 8.337067 -7.4348755 16.604797 -17.885681 24.460419c-5.225464 3.927826 -11.568115 7.7525635 -19.020569 11.4314575c-1.8630981 0.91973877 -3.7955933 1.8303223 -5.7973022 2.7311401c-1.0008545 0.45040894 -2.019043 0.89837646 -3.0545044 1.3437805l-0.029846191 0.01272583" fill-rule="evenodd"/><path stroke="#ff0000" stroke-width="4.0" stroke-linecap="butt" d="m702.0065 319.24066l-9.75116 8.494751l12.930115 -0.23947144z" fill-rule="evenodd"/><path fill="#000000" fill-opacity="0.0" d="m409.5915 219.08867l0 0c117.237854 -4.9565277 233.95001 9.2895355 283.95996 34.660583c50.00995 25.371048 20.7005 55.46614 -71.309814 73.221146l-166.24164 -47.43759z" fill-rule="evenodd"/><path fill="#000000" fill-opacity="0.0" d="m409.5915 219.08867l0 0c117.237854 -4.9565277 233.95001 9.2895355 283.95996 34.660583c50.00995 25.371048 20.7005 55.46614 -71.309814 73.221146" fill-rule="evenodd"/><path stroke="#07c207" stroke-width="4.0" stroke-linejoin="round" stroke-linecap="butt" stroke-dasharray="16.0,12.0" d="m409.5915 219.08867l0 0c117.237854 -4.9565277 233.95007 9.2895355 283.96002 34.6606c25.004944 12.685516 30.180054 26.552063 17.6026 39.466583c-6.2886963 6.457245 -17.015503 12.676514 -31.920776 18.391144c-7.4526978 2.8573303 -15.949951 5.5884705 -25.459412 8.160156c-2.3773193 0.6429138 -4.817932 1.2758789 -7.321289 1.8983154c-1.251709 0.31124878 -2.519104 0.61987305 -3.802063 0.92578125c-0.6415405 0.1529541 -1.2869263 0.30523682 -1.9362183 0.45684814l-0.8619385 0.19915771" fill-rule="evenodd"/><path stroke="#07c207" stroke-width="4.0" stroke-linecap="butt" d="m638.93756 318.9198l-10.974731 6.8410645l12.804443 1.8138428z" fill-rule="evenodd"/></g></svg>