<svg version="1.1" viewBox="0.0 0.0 960.0 540.0" fill="none" stroke="none" stroke-linecap="square" stroke-miterlimit="10" xmlns:xlink="http://www.w3.org/1999/xlink" xmlns="http://www.w3.org/2000/svg"><clipPath id="g332258650e7_0_66.0"><path d="m0 0l960.0 0l0 540.0l-960.0 0l0 -540.0z" clip-rule="nonzero"/></clipPath><g clip-path="url(#g332258650e7_0_66.0)"><path fill="#ffffff" d="m0 0l960.0 0l0 540.0l-960.0 0z" fill-rule="evenodd"/><g filter="url(#shadowFilter-g332258650e7_0_66.1)"><use xlink:href="#g332258650e7_0_66.1" transform="matrix(1.0 0.0 0.0 1.0 0.0 2.0)"/></g><defs><filter id="shadowFilter-g332258650e7_0_66.1" filterUnits="userSpaceOnUse"><feGaussianBlur in="SourceAlpha" stdDeviation="2.0" result="blur"/><feComponentTransfer in="blur" color-interpolation-filters="sRGB"><feFuncR type="linear" slope="0" intercept="0.0"/><feFuncG type="linear" slope="0" intercept="0.0"/><feFuncB type="linear" slope="0" intercept="0.0"/><feFuncA type="linear" slope="0.5" intercept="0"/></feComponentTransfer></filter></defs><g id="g332258650e7_0_66.1"><path fill="#ffffff" d="m121.74348 90.00454l0 0c0 -49.7056 40.29435 -89.99995 89.99995 -89.99995l536.5118 0c23.869507 0 46.761353 9.48211 63.639587 26.360374c16.878296 16.878263 26.360413 39.770103 26.360413 63.639572l0 359.98898c0 49.705597 -40.294373 89.99994 -90.0 89.99994l-536.5118 0l0 0c-49.705597 0 -89.99995 -40.294342 -89.99995 -89.99994z" fill-rule="evenodd"/><path stroke="#000000" stroke-width="3.0" stroke-linejoin="round" stroke-linecap="butt" d="m121.74348 90.00454l0 0c0 -49.7056 40.29435 -89.99995 89.99995 -89.99995l536.5118 0c23.869507 0 46.761353 9.48211 63.639587 26.360374c16.878296 16.878263 26.360413 39.770103 26.360413 63.639572l0 359.98898c0 49.705597 -40.294373 89.99994 -90.0 89.99994l-536.5118 0l0 0c-49.705597 0 -89.99995 -40.294342 -89.99995 -89.99994z" fill-rule="evenodd"/></g><path fill="#000000" d="m161.508 118.51466l0 0c0 -41.832504 33.911957 -75.74445 75.74446 -75.74445l485.4937 0c20.088684 0 39.354614 7.980198 53.55945 22.185036c14.204834 14.204842 22.185059 33.47074 22.185059 53.559418l0 302.96875c0 41.83252 -33.911987 75.744446 -75.74451 75.744446l-485.4937 0c-41.832504 0 -75.74446 -33.911926 -75.74446 -75.744446z" fill-rule="evenodd"/><path stroke="#000000" stroke-width="3.0" stroke-linejoin="round" stroke-linecap="butt" d="m161.508 118.51466l0 0c0 -41.832504 33.911957 -75.74445 75.74446 -75.74445l485.4937 0c20.088684 0 39.354614 7.980198 53.55945 22.185036c14.204834 14.204842 22.185059 33.47074 22.185059 53.559418l0 302.96875c0 41.83252 -33.911987 75.744446 -75.74451 75.744446l-485.4937 0c-41.832504 0 -75.74446 -33.911926 -75.74446 -75.744446z" fill-rule="evenodd"/></g></svg>