<svg version="1.1" viewBox="0.0 0.0 720.0 540.0" fill="none" stroke="none" stroke-linecap="square" stroke-miterlimit="10" xmlns:xlink="http://www.w3.org/1999/xlink" xmlns="http://www.w3.org/2000/svg"><clipPath id="p.0"><path d="m0 0l720.0 0l0 540.0l-720.0 0l0 -540.0z" clip-rule="nonzero"/></clipPath><g clip-path="url(#p.0)"><path fill="#ffffff" d="m0 0l720.0 0l0 540.0l-720.0 0z" fill-rule="evenodd"/><g filter="url(#shadowFilter-p.1)"><use xlink:href="#p.1" transform="matrix(1.0 0.0 0.0 1.0 0.0 2.0)"/></g><defs><filter id="shadowFilter-p.1" filterUnits="userSpaceOnUse"><feGaussianBlur in="SourceAlpha" stdDeviation="2.0" result="blur"/><feComponentTransfer in="blur" color-interpolation-filters="sRGB"><feFuncR type="linear" slope="0" intercept="0.0"/><feFuncG type="linear" slope="0" intercept="0.0"/><feFuncB type="linear" slope="0" intercept="0.0"/><feFuncA type="linear" slope="0.5" intercept="0"/></feComponentTransfer></filter></defs><g id="p.1"><path fill="#ffffff" d="m16.362425 97.35l0 0c0 -47.67741 38.650177 -86.32759 86.32759 -86.32759l514.62 0c22.895508 0 44.85327 9.0952015 61.042786 25.284765c16.189575 16.189564 25.28479 38.147324 25.28479 61.042824l0 345.3c0 47.67743 -38.650208 86.32761 -86.327576 86.32761l-514.62 0l0 0c-47.677414 0 -86.32759 -38.650177 -86.32759 -86.32761z" fill-rule="evenodd"/><path stroke="#000000" stroke-width="3.0" stroke-linejoin="round" stroke-linecap="butt" d="m16.362425 97.35l0 0c0 -47.67741 38.650177 -86.32759 86.32759 -86.32759l514.62 0c22.895508 0 44.85327 9.0952015 61.042786 25.284765c16.189575 16.189564 25.28479 38.147324 25.28479 61.042824l0 345.3c0 47.67743 -38.650208 86.32761 -86.327576 86.32761l-514.62 0l0 0c-47.677414 0 -86.32759 -38.650177 -86.32759 -86.32761z" fill-rule="evenodd"/></g><path fill="#000000" d="m52.48535 116.66146l0 0c0 -42.344757 34.32721 -76.67196 76.67197 -76.67196l461.6854 0c20.334656 0 39.836487 8.077915 54.21521 22.456696c14.378784 14.378784 22.456726 33.8806 22.456726 54.215263l0 306.67865c0 42.344727 -34.32721 76.671936 -76.671936 76.671936l-461.6854 0l0 0c-42.344757 0 -76.67197 -34.32721 -76.67197 -76.671936z" fill-rule="evenodd"/><path stroke="#000000" stroke-width="3.0" stroke-linejoin="round" stroke-linecap="butt" d="m52.48535 116.66146l0 0c0 -42.344757 34.32721 -76.67196 76.67197 -76.67196l461.6854 0c20.334656 0 39.836487 8.077915 54.21521 22.456696c14.378784 14.378784 22.456726 33.8806 22.456726 54.215263l0 306.67865c0 42.344727 -34.32721 76.671936 -76.671936 76.671936l-461.6854 0l0 0c-42.344757 0 -76.67197 -34.32721 -76.67197 -76.671936z" fill-rule="evenodd"/></g></svg>